# xmcd
#
# Track frame offsets:
#	150
#	9996
#	27957
#	49285
#	57222
#	73343
#	89257
#	105076
#	122485
#	138013
#	146554
#	157806
#	175764
#	187656
#	197388
#	206888
#
# Disc length: 3007 seconds
#
# Revision: 1
# Processed by: cddbd v1.5.2PL0 Copyright (c) Steve Scherf et al.
# Submitted via: audiograbber 1.83.01
#
DISCID=c90bbd10
DTITLE=Various Artist - Schrammel.Klang.Festival 2010 CD1
DYEAR=2010
DGENRE=Schrammel
TTITLE0=Wiener Art Schrammeln - Voemond
TTITLE1=Zimt and Zauber - Zehnermess
TTITLE2=Marius Mihalache - Pe Deal
TTITLE3=Triovial - Punzenjodler
TTITLE4=Georg Breinschmid - Skubek´s Delight
TTITLE5=Agnes Palmisano - D´Fischerhütten
TTITLE6=Rudi Koschelu - Da gibt´s ka´ Wogl-Wogl, soll i, soll i net
TTITLE7=die STEINBACH - Hintn bei da Stadltür
TTITLE8=Der erste 9er Sessellift - Die Liebe ist wia die Kronenzeitung
TTITLE9=Die Mondscheinbrüder - Mei Voda hod gsogd
TTITLE10=Kurt Girk - Weana Vollbluatkinder
TTITLE11=remasuri - Herr Herrgott
TTITLE12=16er Buam - Mein Schatzerl is a Häuslfrau
TTITLE13=Patrola Slapeto - Lidicky, ja mam rad pivo
TTITLE14=Tandaray - Wean, du bist a Taschenfeitl
TTITLE15=5/8erl in Ehr´n - Siasse Tschick
EXTD=
EXTT0=
EXTT1=
EXTT2=
EXTT3=
EXTT4=
EXTT5=
EXTT6=
EXTT7=
EXTT8=
EXTT9=
EXTT10=
EXTT11=
EXTT12=
EXTT13=
EXTT14=
EXTT15=
PLAYORDER=
